{
    "asset" : {
        "generator" : "Khronos glTF Blender I/O v1.8.19",
        "version" : "2.0"
    },
    "scene" : 0,
    "scenes" : [
        {
            "name" : "Scene",
            "nodes" : [
                0,
                1,
                2,
                3,
                4,
                5,
                6
            ]
        }
    ],
    "nodes" : [
        {
            "mesh" : 0,
            "name" : "HAPPY.001"
        },
        {
            "mesh" : 1,
            "name" : "HAPPY"
        },
        {
            "mesh" : 2,
            "name" : "Arms"
        },
        {
            "mesh" : 3,
            "name" : "Belly"
        },
        {
            "mesh" : 4,
            "name" : "Legs"
        },
        {
            "mesh" : 5,
            "name" : "Belly.001"
        },
        {
            "mesh" : 6,
            "name" : "Sphere"
        }
    ],
    "materials" : [
        {
            "doubleSided" : true,
            "name" : "Material",
            "pbrMetallicRoughness" : {
                "baseColorTexture" : {
                    "index" : 0
                },
                "metallicFactor" : 0,
                "metallicRoughnessTexture" : {
                    "index" : 1
                }
            }
        },
        {
            "alphaMode" : "BLEND",
            "doubleSided" : true,
            "name" : "Glass Material",
            "pbrMetallicRoughness" : {
                "baseColorFactor" : [
                    1,
                    1,
                    1,
                    0.13636362552642822
                ],
                "metallicFactor" : 0.8909090757369995,
                "roughnessFactor" : 0.26363635063171387
            }
        },
        {
            "doubleSided" : true,
            "emissiveFactor" : [
                1,
                0.512690432369709,
                1
            ],
            "name" : "Emissive",
            "pbrMetallicRoughness" : {
                "baseColorFactor" : [
                    0.800000011920929,
                    0.800000011920929,
                    0.800000011920929,
                    1
                ],
                "metallicFactor" : 0,
                "roughnessFactor" : 0.5
            }
        }
    ],
    "meshes" : [
        {
            "name" : "BezierCurve.001",
            "primitives" : [
                {
                    "attributes" : {
                        "POSITION" : 0,
                        "NORMAL" : 1,
                        "TEXCOORD_0" : 2
                    },
                    "indices" : 3,
                    "material" : 0
                }
            ]
        },
        {
            "name" : "Sphere.001",
            "primitives" : [
                {
                    "attributes" : {
                        "POSITION" : 4,
                        "NORMAL" : 5,
                        "TEXCOORD_0" : 6
                    },
                    "indices" : 7,
                    "material" : 0
                }
            ]
        },
        {
            "name" : "Cube.005",
            "primitives" : [
                {
                    "attributes" : {
                        "POSITION" : 8,
                        "NORMAL" : 9,
                        "TEXCOORD_0" : 10
                    },
                    "indices" : 11,
                    "material" : 0
                }
            ]
        },
        {
            "name" : "Cube",
            "primitives" : [
                {
                    "attributes" : {
                        "POSITION" : 12,
                        "NORMAL" : 13,
                        "TEXCOORD_0" : 14
                    },
                    "indices" : 15,
                    "material" : 1
                }
            ]
        },
        {
            "name" : "Cube.006",
            "primitives" : [
                {
                    "attributes" : {
                        "POSITION" : 16,
                        "NORMAL" : 17,
                        "TEXCOORD_0" : 18
                    },
                    "indices" : 19,
                    "material" : 0
                }
            ]
        },
        {
            "name" : "Cube.007",
            "primitives" : [
                {
                    "attributes" : {
                        "POSITION" : 20,
                        "NORMAL" : 21,
                        "TEXCOORD_0" : 22
                    },
                    "indices" : 23,
                    "material" : 0
                }
            ]
        },
        {
            "name" : "Sphere.003",
            "primitives" : [
                {
                    "attributes" : {
                        "POSITION" : 24,
                        "NORMAL" : 25,
                        "TEXCOORD_0" : 26
                    },
                    "indices" : 27,
                    "material" : 2
                }
            ]
        }
    ],
    "textures" : [
        {
            "sampler" : 0,
            "source" : 0
        },
        {
            "sampler" : 0,
            "source" : 1
        }
    ],
    "images" : [
        {
            "bufferView" : 4,
            "mimeType" : "image/png",
            "name" : "ProbetitaHappy1_Material_BaseColor"
        },
        {
            "bufferView" : 5,
            "mimeType" : "image/png",
            "name" : "ProbetitaHappy1_Material_Roughness"
        }
    ],
    "accessors" : [
        {
            "bufferView" : 0,
            "componentType" : 5126,
            "count" : 180,
            "max" : [
                0.157436341047287,
                1.8827677965164185,
                0.9093112945556641
            ],
            "min" : [
                -0.15743622183799744,
                1.6822502613067627,
                0.754750669002533
            ],
            "type" : "VEC3"
        },
        {
            "bufferView" : 1,
            "componentType" : 5126,
            "count" : 180,
            "type" : "VEC3"
        },
        {
            "bufferView" : 2,
            "componentType" : 5126,
            "count" : 180,
            "type" : "VEC2"
        },
        {
            "bufferView" : 3,
            "componentType" : 5123,
            "count" : 864,
            "type" : "SCALAR"
        },
        {
            "bufferView" : 6,
            "componentType" : 5126,
            "count" : 210,
            "max" : [
                0.5924457311630249,
                1.9532283544540405,
                0.7621599435806274
            ],
            "min" : [
                -0.5924457311630249,
                1.6324740648269653,
                0.4960296154022217
            ],
            "type" : "VEC3"
        },
        {
            "bufferView" : 7,
            "componentType" : 5126,
            "count" : 210,
            "type" : "VEC3"
        },
        {
            "bufferView" : 8,
            "componentType" : 5126,
            "count" : 210,
            "type" : "VEC2"
        },
        {
            "bufferView" : 9,
            "componentType" : 5123,
            "count" : 840,
            "type" : "SCALAR"
        },
        {
            "bufferView" : 10,
            "componentType" : 5126,
            "count" : 240,
            "max" : [
                1.3675413131713867,
                1.7727922201156616,
                0.1665937304496765
            ],
            "min" : [
                -1.3675413131713867,
                1.168580412864685,
                -0.12670163810253143
            ],
            "type" : "VEC3"
        },
        {
            "bufferView" : 11,
            "componentType" : 5126,
            "count" : 240,
            "type" : "VEC3"
        },
        {
            "bufferView" : 12,
            "componentType" : 5126,
            "count" : 240,
            "type" : "VEC2"
        },
        {
            "bufferView" : 13,
            "componentType" : 5123,
            "count" : 1152,
            "type" : "SCALAR"
        },
        {
            "bufferView" : 14,
            "componentType" : 5126,
            "count" : 204,
            "max" : [
                0.2855285108089447,
                3.895479440689087,
                0.28400716185569763
            ],
            "min" : [
                -0.2855284810066223,
                2.539745807647705,
                -0.2840072214603424
            ],
            "type" : "VEC3"
        },
        {
            "bufferView" : 15,
            "componentType" : 5126,
            "count" : 204,
            "type" : "VEC3"
        },
        {
            "bufferView" : 16,
            "componentType" : 5126,
            "count" : 204,
            "type" : "VEC2"
        },
        {
            "bufferView" : 17,
            "componentType" : 5123,
            "count" : 1056,
            "type" : "SCALAR"
        },
        {
            "bufferView" : 18,
            "componentType" : 5126,
            "count" : 184,
            "max" : [
                0.5575494766235352,
                1.4917348623275757,
                1.4796040058135986
            ],
            "min" : [
                -0.5575494766235352,
                0.9127538204193115,
                0.8335062861442566
            ],
            "type" : "VEC3"
        },
        {
            "bufferView" : 19,
            "componentType" : 5126,
            "count" : 184,
            "type" : "VEC3"
        },
        {
            "bufferView" : 20,
            "componentType" : 5126,
            "count" : 184,
            "type" : "VEC2"
        },
        {
            "bufferView" : 21,
            "componentType" : 5123,
            "count" : 816,
            "type" : "SCALAR"
        },
        {
            "bufferView" : 22,
            "componentType" : 5126,
            "count" : 246,
            "max" : [
                1.082823634147644,
                2.82344126701355,
                1.1058244705200195
            ],
            "min" : [
                -1.082823634147644,
                0.7536437511444092,
                -1.1067155599594116
            ],
            "type" : "VEC3"
        },
        {
            "bufferView" : 23,
            "componentType" : 5126,
            "count" : 246,
            "type" : "VEC3"
        },
        {
            "bufferView" : 24,
            "componentType" : 5126,
            "count" : 246,
            "type" : "VEC2"
        },
        {
            "bufferView" : 25,
            "componentType" : 5123,
            "count" : 1416,
            "type" : "SCALAR"
        },
        {
            "bufferView" : 26,
            "componentType" : 5126,
            "count" : 270,
            "max" : [
                0.21135005354881287,
                4.70013952255249,
                0.0639355331659317
            ],
            "min" : [
                -0.3405151963233948,
                4.031379699707031,
                -0.22724701464176178
            ],
            "type" : "VEC3"
        },
        {
            "bufferView" : 27,
            "componentType" : 5126,
            "count" : 270,
            "type" : "VEC3"
        },
        {
            "bufferView" : 28,
            "componentType" : 5126,
            "count" : 270,
            "type" : "VEC2"
        },
        {
            "bufferView" : 29,
            "componentType" : 5123,
            "count" : 1260,
            "type" : "SCALAR"
        }
    ],
    "bufferViews" : [
        {
            "buffer" : 0,
            "byteLength" : 2160,
            "byteOffset" : 0
        },
        {
            "buffer" : 0,
            "byteLength" : 2160,
            "byteOffset" : 2160
        },
        {
            "buffer" : 0,
            "byteLength" : 1440,
            "byteOffset" : 4320
        },
        {
            "buffer" : 0,
            "byteLength" : 1728,
            "byteOffset" : 5760
        },
        {
            "buffer" : 0,
            "byteLength" : 168689,
            "byteOffset" : 7488
        },
        {
            "buffer" : 0,
            "byteLength" : 72798,
            "byteOffset" : 176180
        },
        {
            "buffer" : 0,
            "byteLength" : 2520,
            "byteOffset" : 248980
        },
        {
            "buffer" : 0,
            "byteLength" : 2520,
            "byteOffset" : 251500
        },
        {
            "buffer" : 0,
            "byteLength" : 1680,
            "byteOffset" : 254020
        },
        {
            "buffer" : 0,
            "byteLength" : 1680,
            "byteOffset" : 255700
        },
        {
            "buffer" : 0,
            "byteLength" : 2880,
            "byteOffset" : 257380
        },
        {
            "buffer" : 0,
            "byteLength" : 2880,
            "byteOffset" : 260260
        },
        {
            "buffer" : 0,
            "byteLength" : 1920,
            "byteOffset" : 263140
        },
        {
            "buffer" : 0,
            "byteLength" : 2304,
            "byteOffset" : 265060
        },
        {
            "buffer" : 0,
            "byteLength" : 2448,
            "byteOffset" : 267364
        },
        {
            "buffer" : 0,
            "byteLength" : 2448,
            "byteOffset" : 269812
        },
        {
            "buffer" : 0,
            "byteLength" : 1632,
            "byteOffset" : 272260
        },
        {
            "buffer" : 0,
            "byteLength" : 2112,
            "byteOffset" : 273892
        },
        {
            "buffer" : 0,
            "byteLength" : 2208,
            "byteOffset" : 276004
        },
        {
            "buffer" : 0,
            "byteLength" : 2208,
            "byteOffset" : 278212
        },
        {
            "buffer" : 0,
            "byteLength" : 1472,
            "byteOffset" : 280420
        },
        {
            "buffer" : 0,
            "byteLength" : 1632,
            "byteOffset" : 281892
        },
        {
            "buffer" : 0,
            "byteLength" : 2952,
            "byteOffset" : 283524
        },
        {
            "buffer" : 0,
            "byteLength" : 2952,
            "byteOffset" : 286476
        },
        {
            "buffer" : 0,
            "byteLength" : 1968,
            "byteOffset" : 289428
        },
        {
            "buffer" : 0,
            "byteLength" : 2832,
            "byteOffset" : 291396
        },
        {
            "buffer" : 0,
            "byteLength" : 3240,
            "byteOffset" : 294228
        },
        {
            "buffer" : 0,
            "byteLength" : 3240,
            "byteOffset" : 297468
        },
        {
            "buffer" : 0,
            "byteLength" : 2160,
            "byteOffset" : 300708
        },
        {
            "buffer" : 0,
            "byteLength" : 2520,
            "byteOffset" : 302868
        }
    ],
    "samplers" : [
        {
            "magFilter" : 9729,
            "minFilter" : 9987
        }
    ],
    "buffers" : [
        {
            "byteLength" : 305388,
            "uri" : "data:application/octet-stream;base64,"
        }
    ]
}
